# xmcd
#
# Track frame offsets:
#	150
#	17765
#	27162
#	42705
#	62801
#	77276
#	94910
#	111733
#	134939
#	150639
#
# Disc length: 2289 seconds
# Revision: 0
# Processed by: cddbd v1.5.2PL0 Copyright (c) Steve Scherf et al.
# Submitted via: dBpowerAMP V12.0
#
DISCID=8a08ef0a
DTITLE=The Pocket Players - Throw Your Dog a Bone
DYEAR=2016
DGENRE=Progressiv blues
TTITLE0=St. Croix blues
TTITLE1=I believe I'll cross the rim
TTITLE2=Walk the Planet For You
TTITLE3=Losin' it
TTITLE4=Throw Your Dog a Bone
TTITLE5=Brand New Start
TTITLE6=Will You Weep For Me
TTITLE7=The Blinds
TTITLE8=No Friend of Mine
TTITLE9=Jonah
EXTD=
EXTT0=
EXTT1=
EXTT2=
EXTT3=
EXTT4=
EXTT5=
EXTT6=
EXTT7=
EXTT8=
EXTT9=
PLAYORDER=
